<?xml version="1.0" encoding="UTF-8"?>
<svg width="784px" height="793px" viewBox="0 0 784 793" version="1.1" xmlns="http://www.w3.org/2000/svg" xmlns:xlink="http://www.w3.org/1999/xlink">
    <title>logo_hk_bg</title>
    <defs>
        <linearGradient x1="78.7024177%" y1="82.0283108%" x2="31.1137754%" y2="17.9362376%" id="linearGradient-1">
            <stop stop-color="#FFB318" stop-opacity="0.3" offset="0%"></stop>
            <stop stop-color="#FFBF3C" stop-opacity="0.15" offset="37.0602299%"></stop>
            <stop stop-color="#FFD887" stop-opacity="0.1" offset="62.914679%"></stop>
            <stop stop-color="#FFDE9B" stop-opacity="0" offset="100%"></stop>
        </linearGradient>
    </defs>
    <g id="logo_hk_bg" stroke="none" stroke-width="1" fill="none" fill-rule="evenodd">
        <path d="M372.116923,1.27748691 L372.116923,119.636649 C230.717,135.796859 120.367085,253.900524 120.367085,396.531937 C120.367085,549.990054 248.432252,675.151833 405.453804,675.151833 C494.609835,675.151833 574.425101,634.687435 626.701196,571.707331 L711.637777,655.829843 C637.1693,739.728797 527.463576,793 405.453804,793 C182.016162,793 0,614.918326 0,396.531937 C0,188.972251 164.33312,18.0125654 372.116923,1.27748691 Z M414.408058,0 C578.805596,3.64083771 719.49691,103.508377 779.664345,244.159686 C789.810354,270.124607 781.017146,293.917801 765.009001,309.694764 C740.11102,334.030889 715.0842,358.143454 690.154009,382.256022 C678.977295,391.741362 679.782533,399.502094 691.377972,409.466492 C717.596544,435.495289 743.428604,461.77958 769.808225,487.393192 C783.658332,501.892671 787.072541,529.550262 779.793183,548.201572 C768.552052,574.517801 754.540897,599.58848 737.985188,622.710994 L675.273199,560.529318 L655.0456,540.121466 L588.629511,478.674346 L461.530631,600.96178 C427.130832,634.687435 371.665987,634.623561 337.362819,600.738219 L193.547181,458.010993 C159.179592,423.902093 159.179592,368.682722 193.547181,334.605758 L342.323089,187.056021 C376.594049,152.979058 432.380989,152.915183 466.619739,186.928272 L590.851968,310.046074 L648.700319,252.942408 C600.482624,173.259162 514.869644,120.914136 414.408058,117.720419 L414.408058,0 Z M402.490527,300.017801 C398.657589,300.017801 395.082331,301.486911 392.376728,304.105759 L312.17495,383.597382 C309.662605,386.12042 308.019918,389.697383 308.019918,393.625654 C308.019918,397.585865 309.727024,401.194764 312.464836,403.813613 L392.376728,483.113613 C395.082331,485.604711 398.657589,487.201571 402.490527,487.201571 C406.484511,487.201571 410.188607,485.540837 412.797582,482.794241 L492.548424,403.813613 L492.821545,403.548452 C495.424023,400.953781 496.928923,397.453858 496.928923,393.625654 C496.928923,389.697383 495.382865,386.12042 492.773894,383.597382 L412.797582,304.329319 C410.188607,301.678534 406.484511,300.017801 402.490527,300.017801 Z" fill="url(#linearGradient-1)"></path>
    </g>
</svg>